<?xml version="1.0" encoding="UTF-8" standalone="no"?>
<svg
   xmlns:dc="http://purl.org/dc/elements/1.1/"
   xmlns:cc="http://creativecommons.org/ns#"
   xmlns:rdf="http://www.w3.org/1999/02/22-rdf-syntax-ns#"
   xmlns:svg="http://www.w3.org/2000/svg"
   xmlns="http://www.w3.org/2000/svg"
   id="svg8"
   version="1.1"
   viewBox="0 0 211.66666 119.06251"
   height="450"
   width="800">
  <defs
     id="defs2" />
  <metadata
     id="metadata5">
    <rdf:RDF>
      <cc:Work
         rdf:about="">
        <dc:format>image/svg+xml</dc:format>
        <dc:type
           rdf:resource="http://purl.org/dc/dcmitype/StillImage" />
        <dc:title></dc:title>
      </cc:Work>
    </rdf:RDF>
  </metadata>
  <g
     style="display:none;opacity:0.5"
     transform="translate(0,-177.93748)"
     id="layer1">
    <path
       id="path901"
       d="m 24.35085,193.69575 4.214966,15.73047"
       style="fill:none;stroke:#cccccc;stroke-width:1.26664019;stroke-linecap:round;stroke-linejoin:round;stroke-miterlimit:4;stroke-dasharray:none;stroke-opacity:1" />
    <path
       style="fill:none;stroke:#cccccc;stroke-width:1.26664019;stroke-linecap:round;stroke-linejoin:round;stroke-miterlimit:4;stroke-dasharray:none;stroke-opacity:1"
       d="m 34.323566,199.4535 -15.730463,4.21497"
       id="path903" />
    <path
       style="fill:none;stroke:#666666;stroke-width:1.32291675;stroke-linecap:round;stroke-linejoin:round;stroke-miterlimit:4;stroke-dasharray:none;stroke-opacity:1"
       d="m 122.56743,258.88528 -8.16503,14.921"
       id="path89157" />
    <path
       id="path89159"
       d="m 125.9454,270.4283 -14.92099,-8.16503"
       style="fill:none;stroke:#666666;stroke-width:1.32291675;stroke-linecap:round;stroke-linejoin:round;stroke-miterlimit:4;stroke-dasharray:none;stroke-opacity:1" />
    <path
       style="fill:none;stroke:#ececec;stroke-width:0.9641937;stroke-linecap:round;stroke-linejoin:round;stroke-miterlimit:4;stroke-dasharray:none;stroke-opacity:1"
       d="m 151.91134,236.55556 11.2147,5.28307"
       id="path89163" />
    <path
       id="path89165"
       d="m 160.16022,233.58975 -5.28305,11.2147"
       style="fill:none;stroke:#ececec;stroke-width:0.9641937;stroke-linecap:round;stroke-linejoin:round;stroke-miterlimit:4;stroke-dasharray:none;stroke-opacity:1" />
    <path
       style="fill:none;stroke:#999999;stroke-width:1.21380389;stroke-linecap:round;stroke-linejoin:round;stroke-miterlimit:4;stroke-dasharray:none;stroke-opacity:1"
       d="m 20.12003,261.57757 0.754484,15.58781"
       id="path89169" />
    <path
       id="path89171"
       d="m 28.291173,268.99423 -15.587802,0.7545"
       style="fill:none;stroke:#999999;stroke-width:1.21380389;stroke-linecap:round;stroke-linejoin:round;stroke-miterlimit:4;stroke-dasharray:none;stroke-opacity:1" />
    <path
       style="fill:none;stroke:#cccccc;stroke-width:0.68929029;stroke-linecap:round;stroke-linejoin:round;stroke-miterlimit:4;stroke-dasharray:none;stroke-opacity:1"
       d="m 185.02816,202.84218 -4.70204,7.51206"
       id="path89175" />
    <path
       id="path89177"
       d="m 186.43317,208.94923 -7.51206,-4.70204"
       style="fill:none;stroke:#cccccc;stroke-width:0.68929029;stroke-linecap:round;stroke-linejoin:round;stroke-miterlimit:4;stroke-dasharray:none;stroke-opacity:1" />
    <path
       style="fill:none;stroke:#808080;stroke-width:0.97679549;stroke-linecap:round;stroke-linejoin:round;stroke-miterlimit:4;stroke-dasharray:none;stroke-opacity:1"
       d="m 107.16602,202.6934 -4.83462,11.59095"
       id="path89181" />
    <path
       id="path89183"
       d="M 110.54418,210.90618 98.953234,206.07157"
       style="fill:none;stroke:#808080;stroke-width:0.97679549;stroke-linecap:round;stroke-linejoin:round;stroke-miterlimit:4;stroke-dasharray:none;stroke-opacity:1" />
    <path
       style="fill:none;stroke:#e6e6e6;stroke-width:1.08146417;stroke-linecap:round;stroke-linejoin:round;stroke-miterlimit:4;stroke-dasharray:none;stroke-opacity:1"
       d="m 55.74085,227.22895 11.289574,8.11676"
       id="path89187" />
    <path
       id="path89189"
       d="M 65.444021,225.64254 57.32726,236.93212"
       style="fill:none;stroke:#e6e6e6;stroke-width:1.08146417;stroke-linecap:round;stroke-linejoin:round;stroke-miterlimit:4;stroke-dasharray:none;stroke-opacity:1" />
    <path
       style="fill:none;stroke:#999999;stroke-width:0.93698585;stroke-linecap:round;stroke-linejoin:round;stroke-miterlimit:4;stroke-dasharray:none;stroke-opacity:1"
       d="m 177.23173,275.485 -6.6968,10.01411"
       id="path89193" />
    <path
       id="path89195"
       d="m 178.89038,283.84045 -10.01411,-6.69679"
       style="fill:none;stroke:#999999;stroke-width:0.93698585;stroke-linecap:round;stroke-linejoin:round;stroke-miterlimit:4;stroke-dasharray:none;stroke-opacity:1" />
  </g>
  <g
     style="opacity:0.3"
     id="layer2">
    <rect
       transform="rotate(-15)"
       ry="2.1038873"
       rx="2.1038873"
       y="25.240726"
       x="11.68061"
       height="19.661446"
       width="19.661446"
       id="rect981"
       style="opacity:1;vector-effect:none;fill:none;fill-opacity:1;fill-rule:evenodd;stroke:#f48fb1;stroke-width:1.10785711;stroke-linecap:round;stroke-linejoin:round;stroke-miterlimit:4;stroke-dasharray:none;stroke-dashoffset:0;stroke-opacity:1" />
    <rect
       style="opacity:1;vector-effect:none;fill:none;fill-opacity:1;fill-rule:evenodd;stroke:#81d4fa;stroke-width:0.42911366;stroke-linecap:round;stroke-linejoin:round;stroke-miterlimit:4;stroke-dasharray:none;stroke-dashoffset:0;stroke-opacity:1"
       id="rect997"
       width="9.8753748"
       height="9.8753748"
       x="101.98301"
       y="-17.340033"
       rx="1.0567218"
       ry="1.0567218"
       transform="rotate(23.200589)" />
    <path
       id="rect1079"
       d="m 188.27823,11.520312 6.39975,-4.7875229 c 0.48269,-0.3610864 1.16197,-0.2631927 1.52306,0.2194919 l 4.78752,6.399751 c 0.36109,0.482684 0.26319,1.161962 -0.21949,1.523049 l -6.39975,4.787522 c -0.48269,0.361087 -1.16196,0.263195 -1.52305,-0.21949 l -4.78752,-6.39975 c -0.36109,-0.482685 -0.2632,-1.161965 0.21948,-1.523051 z"
       style="opacity:1;vector-effect:none;fill:none;fill-opacity:1;fill-rule:evenodd;stroke:#a5d6a7;stroke-width:0.5291667;stroke-linecap:round;stroke-linejoin:round;stroke-miterlimit:4;stroke-dasharray:none;stroke-dashoffset:0;stroke-opacity:1" />
    <path
       style="opacity:1;vector-effect:none;fill:none;fill-opacity:1;fill-rule:evenodd;stroke:#666666;stroke-width:1.32291675;stroke-linecap:round;stroke-linejoin:round;stroke-miterlimit:4;stroke-dasharray:none;stroke-dashoffset:0;stroke-opacity:1"
       d="m 103.03878,100.12362 6.94288,-13.544214 c 0.52367,-1.021545 1.76762,-1.422369 2.78917,-0.898725 l 13.5442,6.942888 c 1.02155,0.523644 1.42236,1.767605 0.8987,2.789147 l -6.94288,13.544214 c -0.52364,1.02154 -1.76758,1.42236 -2.78912,0.89871 l -13.54421,-6.94289 c -1.02154,-0.52365 -1.42238,-1.7676 -0.89874,-2.78913 z"
       id="path1105" />
    <path
       id="path1121"
       d="m 156.40106,70.081139 -8.37655,-7.579452 c -0.63179,-0.571678 -0.68019,-1.540506 -0.10853,-2.172297 l 7.57946,-8.376551 c 0.57165,-0.63179 1.54049,-0.680177 2.17227,-0.108508 l 8.37656,7.579452 c 0.63178,0.571654 0.68018,1.540474 0.10852,2.172257 l -7.57945,8.376559 c -0.57166,0.631782 -1.54049,0.680193 -2.17228,0.10854 z"
       style="opacity:1;vector-effect:none;fill:none;fill-opacity:1;fill-rule:evenodd;stroke:#e6ee9c;stroke-width:0.9641937;stroke-linecap:round;stroke-linejoin:round;stroke-miterlimit:4;stroke-dasharray:none;stroke-dashoffset:0;stroke-opacity:1;font-variant-east_asian:normal" />
    <path
       style="opacity:1;vector-effect:none;fill:none;fill-opacity:1;fill-rule:evenodd;stroke:#b0bec5;stroke-width:0.86012077;stroke-linecap:round;stroke-linejoin:round;stroke-miterlimit:4;stroke-dasharray:none;stroke-dashoffset:0;stroke-opacity:1"
       d="m 177.5546,112.04138 -8.8357,-5.42829 c -0.66643,-0.40942 -0.87332,-1.27552 -0.46392,-1.94193 l 5.4283,-8.835713 c 0.4094,-0.666418 1.2755,-0.873303 1.94192,-0.463881 l 8.8357,5.428284 c 0.66642,0.40941 0.87331,1.27549 0.4639,1.9419 l -5.42828,8.83571 c -0.40941,0.66641 -1.27551,0.87332 -1.94192,0.46392 z"
       id="path1139" />
    <path
       id="path1155"
       d="m 53.833341,61.270082 2.83125,-12.714033 c 0.213555,-0.958935 1.157445,-1.559004 2.116378,-1.345471 l 12.714023,2.831259 c 0.958933,0.213533 1.558993,1.157435 1.345445,2.116365 l -2.83125,12.714033 c -0.213532,0.958919 -1.157415,1.558983 -2.116341,1.345443 l -12.71403,-2.831253 c -0.958925,-0.21354 -1.559008,-1.157427 -1.345475,-2.116343 z"
       style="opacity:1;vector-effect:none;fill:none;fill-opacity:1;fill-rule:evenodd;stroke:#ce93d8;stroke-width:1.08146417;stroke-linecap:round;stroke-linejoin:round;stroke-miterlimit:4;stroke-dasharray:none;stroke-dashoffset:0;stroke-opacity:1" />
    <path
       style="opacity:1;vector-effect:none;fill:none;fill-opacity:1;fill-rule:evenodd;stroke:#90caf9;stroke-width:1.21380389;stroke-linecap:round;stroke-linejoin:round;stroke-miterlimit:4;stroke-dasharray:none;stroke-dashoffset:0;stroke-opacity:1"
       d="M 14.401799,99.542004 10.524144,87.107118 c -0.292459,-0.937887 0.22713,-1.928364 1.165005,-2.220837 l 12.434882,-3.877642 c 0.937874,-0.292476 1.928348,0.227127 2.220807,1.165006 l 3.877655,12.434887 c 0.292463,0.937863 -0.227114,1.928331 -1.164986,2.220794 l -12.434886,3.877654 c -0.937871,0.29246 -1.928358,-0.22712 -2.220822,-1.164976 z"
       id="path1171" />
  </g>
</svg>
